<?xml version="1.0" standalone="no"?>
<!DOCTYPE svg PUBLIC "-//W3C//DTD SVG 20010904//EN"
 "http://www.w3.org/TR/2001/REC-SVG-20010904/DTD/svg10.dtd">
<svg version="1.0" xmlns="http://www.w3.org/2000/svg"
 width="550.000000pt" height="550.000000pt" viewBox="0 0 550.000000 550.000000"
 preserveAspectRatio="xMidYMid meet">

<g transform="translate(0.000000,550.000000) scale(0.100000,-0.100000)"
fill="#000000" stroke="none">
<path d="M2721 5238 c-26 -56 -226 -504 -303 -678 -33 -74 -73 -164 -89 -199
-16 -35 -53 -116 -81 -180 -28 -64 -54 -120 -59 -125 -4 -5 -124 35 -276 92
-147 56 -322 121 -388 146 -66 24 -194 72 -285 106 -91 34 -177 64 -192 67
l-28 5 19 -43 c10 -24 44 -111 76 -194 32 -82 109 -279 172 -436 62 -158 113
-291 113 -297 0 -5 6 -15 13 -21 11 -8 36 -1 105 32 51 23 92 48 92 55 0 8
-39 111 -86 231 -115 288 -116 291 -100 291 8 0 47 -13 87 -29 41 -16 112 -44
159 -62 170 -65 405 -161 413 -168 16 -15 -75 -181 -136 -246 -68 -75 -117
-110 -230 -164 -239 -115 -380 -181 -383 -181 -2 0 -47 -20 -100 -45 -53 -25
-97 -45 -99 -45 -2 0 -59 -26 -126 -59 -68 -32 -150 -70 -182 -85 -31 -14 -81
-37 -110 -50 -28 -13 -97 -44 -152 -69 -177 -79 -275 -128 -275 -136 0 -4 62
-36 138 -71 75 -35 193 -89 261 -121 68 -33 125 -59 127 -59 2 0 52 -23 111
-51 59 -28 131 -61 158 -74 28 -12 89 -41 138 -64 48 -22 125 -59 172 -81 47
-21 85 -43 85 -48 0 -5 -39 -105 -86 -223 -47 -118 -100 -252 -119 -299 -45
-116 -130 -330 -165 -415 -48 -116 -80 -203 -80 -214 0 -16 15 -14 83 13 34
13 166 63 292 110 743 277 810 306 944 406 131 99 229 228 321 423 101 214
166 466 185 722 34 434 164 793 357 985 95 95 139 122 308 187 63 25 210 83
327 129 116 46 218 84 227 84 12 0 8 -17 -20 -82 -20 -46 -62 -150 -94 -233
-112 -284 -150 -370 -163 -367 -48 12 -172 97 -240 165 l-79 78 -43 -25 c-82
-49 -151 -134 -220 -275 -97 -198 -144 -384 -176 -706 -16 -163 -52 -331 -107
-500 -72 -218 -149 -370 -262 -520 -28 -37 -50 -71 -50 -78 1 -21 116 -271
126 -274 9 -3 56 88 98 189 9 20 40 76 70 126 152 248 222 425 295 742 36 155
40 175 47 237 6 59 7 61 38 66 17 3 177 6 356 7 l324 1 86 41 c47 22 95 44
108 49 12 5 22 12 22 16 0 5 -51 32 -113 61 l-112 52 -337 0 -338 0 0 26 c0
30 42 182 74 267 28 76 82 183 95 192 6 3 34 -13 63 -35 29 -22 94 -60 143
-84 96 -47 285 -136 290 -136 1 0 54 -24 116 -54 190 -89 269 -126 273 -126 3
0 53 -23 113 -51 59 -28 132 -62 161 -74 57 -26 63 -36 30 -53 -42 -21 -280
-132 -284 -132 -2 0 -51 -23 -109 -50 -58 -28 -107 -50 -109 -50 -2 0 -59 -26
-127 -59 -68 -32 -149 -70 -179 -84 -274 -125 -368 -187 -475 -315 -53 -63
-139 -223 -209 -388 -13 -33 -43 -99 -65 -147 -23 -49 -41 -90 -41 -92 0 -2
-15 -36 -34 -77 -32 -68 -58 -125 -204 -450 -31 -71 -60 -128 -64 -128 -9 0
-41 69 -148 315 -117 271 -143 325 -153 325 -6 0 -24 -10 -41 -23 -17 -13 -55
-36 -83 -52 -29 -15 -53 -31 -53 -34 0 -11 38 -105 69 -173 16 -36 59 -133 94
-214 36 -82 84 -190 107 -239 23 -50 68 -148 100 -220 95 -214 101 -225 110
-225 6 0 10 4 10 9 0 6 17 47 39 93 21 46 54 119 74 163 19 44 55 123 80 177
25 53 64 140 87 193 23 53 62 140 87 193 25 54 63 138 85 187 64 145 97 215
101 215 8 0 200 -73 437 -167 63 -25 156 -60 205 -78 50 -18 181 -66 292 -109
201 -75 228 -84 221 -68 -48 120 -345 875 -363 927 -29 80 -26 79 -131 27 -52
-25 -94 -52 -94 -58 0 -6 18 -55 41 -110 79 -193 162 -414 155 -414 -3 0 -221
82 -421 159 -72 27 -157 61 -188 75 -67 29 -67 26 -12 136 36 71 94 150 153
206 32 30 206 122 437 229 162 76 213 99 250 115 22 10 117 53 210 97 94 44
206 97 250 117 285 131 455 212 455 217 0 6 -190 98 -330 159 -116 51 -183 82
-329 151 -68 33 -125 59 -127 59 -1 0 -50 23 -109 50 -59 28 -108 50 -110 50
-11 0 -175 82 -180 89 -6 10 23 89 113 311 27 69 65 163 83 210 17 47 51 132
75 190 54 132 104 261 143 368 22 61 26 82 16 82 -11 0 -581 -211 -785 -290
-25 -10 -81 -31 -125 -48 -244 -92 -357 -155 -468 -261 -239 -228 -412 -680
-442 -1151 -14 -227 -69 -444 -166 -648 -60 -128 -119 -212 -202 -288 -87 -79
-160 -121 -335 -189 -81 -32 -192 -76 -247 -98 -165 -65 -260 -96 -263 -87 -2
5 40 119 93 252 53 134 111 279 128 323 17 44 37 86 43 94 21 24 154 -59 250
-156 l81 -81 50 28 c55 31 119 101 176 191 92 145 185 452 202 664 33 435 172
850 382 1142 29 41 53 78 53 82 0 4 -13 34 -28 67 -16 32 -44 96 -63 141 -19
46 -40 83 -46 83 -7 0 -13 -6 -13 -13 0 -28 -104 -254 -157 -341 -157 -256
-258 -551 -326 -946 l-13 -75 -360 -5 -359 -5 -103 -49 c-56 -27 -101 -54 -99
-59 1 -5 50 -31 107 -58 l105 -48 342 -1 c188 0 344 -4 347 -8 6 -11 -28 -153
-59 -241 -37 -104 -104 -241 -118 -241 -7 0 -37 18 -67 41 -61 45 -93 64 -225
125 -185 85 -674 313 -761 354 -49 23 -106 49 -127 57 -20 8 -37 18 -37 22 0
7 122 66 360 174 96 43 209 94 250 114 41 19 156 73 255 120 99 46 200 96 225
110 120 69 241 195 315 327 32 57 144 302 235 511 20 46 93 210 158 355 38 85
80 180 92 210 13 30 27 59 31 64 6 7 79 -131 79 -149 0 -2 23 -55 51 -117 28
-62 59 -131 69 -153 63 -142 104 -225 113 -225 5 0 43 20 84 45 40 25 78 45
83 45 27 0 15 30 -163 420 -14 30 -44 98 -67 150 -48 109 -67 151 -125 275
-22 50 -57 127 -76 172 -19 46 -37 83 -41 83 -5 0 -17 -19 -27 -42z"/>
</g>
</svg>
